<svg xmlns="http://www.w3.org/2000/svg" viewBox="0 0 278.86 199.12"><defs><style>.cls-1{fill:#fbe0d7;}.cls-1,.cls-2,.cls-3,.cls-4,.cls-5,.cls-6,.cls-7{stroke:#231815;}.cls-1,.cls-4,.cls-6,.cls-7{stroke-linecap:round;}.cls-1,.cls-3,.cls-6,.cls-7{stroke-miterlimit:10;}.cls-1,.cls-2,.cls-3,.cls-5,.cls-6{stroke-width:2px;}.cls-2{fill:#00913a;}.cls-2,.cls-4,.cls-5{stroke-linejoin:round;}.cls-3,.cls-4,.cls-5,.cls-6,.cls-7{fill:none;}</style></defs><title>アセット 2</title><g id="レイヤー_2" data-name="レイヤー 2"><g id="Felica_Reader" data-name="Felica Reader"><path class="cls-1" d="M254.45,198.12S220.51,174.3,207,170c-10-3.21-30.89-3.11-42.57-9.62-10.28-5.72-15.16-18.79-15.16-18.79A40.18,40.18,0,0,1,136,146.2,37,37,0,0,1,121.81,145c-11.35-4.66-9.59-10.83-9.59-10.83s-4.62-.66-7.19-6.35c-1.65-3.62-1.06-14.27-1.06-14.27s-7.34,6.35-10.28,1.81c-5.64-8.7-4.25-55.94,2.94-60.17C100.35,53,161.82,48.79,166,50c3.43,1,22.37,19.66,38.7,41.13,12,15.76,17.51,20.61,37.05,34.1,7.05,4.86,12.91,11.09,17.07,12.46a171.18,171.18,0,0,1,19.07,7.87"/><path class="cls-2" d="M89.76,89.7l49-32.52a1.78,1.78,0,0,0-.24-3L60.28,3.5C55.85.75,53.94.51,51.8,1.62L4.64,31.74c-7.53,3.9-1,7.22-1,7.22L82.82,89.13C85,90.49,88.47,90.49,89.76,89.7Z"/><path class="cls-1" d="M170.8,84.51s-4.41,2-19.65-4.23c-9.21-3.75-26.5-18-36.29-19.4a65.87,65.87,0,0,0-27.22,1.86c-3.76,1.06-6.35,11.18,2.57,15.42,5.88,2.79,14.86,3.77,20.25,5.74,12.58,4.62,17.2,12.82,20.8,18.15,6.12,9,12.48,24.4,18.83,31.05,13.71,14.37,33.94,19.45,42.79,20.36,5.78.59,7.26,3.91,7.26,3.91"/><path class="cls-3" d="M84.17,70.6S93,72,94.9,70.6C100,67,100,60.48,100,60.48"/><path class="cls-4" d="M146.31,58.5s-1.78,2-2.86,7.34c-1.43,7.15,0,10.31,0,10.31"/><path class="cls-4" d="M169.9,73s-4.79,2.64-6.05,3.93-3.95,6.4-3.95,6.4"/><path class="cls-5" d="M110.46,83.9s-.33,12.63-1.65,19.36c-1.6,8.16-4.84,10.28-4.84,10.28"/><path class="cls-6" d="M104,119.41s4.35,7.72,9.2,8.44c4,.6,9.62-1.37,14.91-2.08,6-.8,14.07-1.1,13.21-6"/><path class="cls-7" d="M126.86,125.77c-1.47-.62-3-2.81-.73-6.36.94-1.44,5-1.71,6.67-1.71,9.53,0,7.51,4.09,7.51,4.09"/><path class="cls-4" d="M115.13,92s5,5.7,6.08,9c1.48,4.64,1,7.33,1,7.33a6.33,6.33,0,0,0-2.17.39,18.19,18.19,0,0,0-2,1.81s1-1.82,5.53-2.32c2.82-.31,12.66.33,12.66,2.1"/><path class="cls-4" d="M112.22,134.16s10.76,4.63,15.36,4.65c9.15,0,20.17-8.52,20.17-8.52"/><path class="cls-7" d="M151.77,136.81c0-2.52-5.46-2.26-9.62,2-1,1-1.66,5.52,1.1,5.52"/><path class="cls-6" d="M149.29,141.58A10.44,10.44,0,0,0,152,135"/><path class="cls-7" d="M140.49,134.88c-1.77.82-5.3-1.76-3-5.31.94-1.44,6.28-3.67,8-2.5"/></g></g></svg>