<svg xmlns="http://www.w3.org/2000/svg" viewBox="0 0 151.85 151.85"><defs><style>.cls-1,.cls-3,.cls-4,.cls-8{fill:#231815;}.cls-1,.cls-10,.cls-11,.cls-2,.cls-3,.cls-6,.cls-7,.cls-9{stroke:#231815;}.cls-1,.cls-10,.cls-11,.cls-12,.cls-2,.cls-3,.cls-4,.cls-6,.cls-7,.cls-9{stroke-miterlimit:10;}.cls-1,.cls-2,.cls-6{stroke-width:2px;}.cls-2,.cls-5{fill:#fff;}.cls-3{stroke-width:5px;}.cls-4{stroke:#fff;stroke-width:1.5px;}.cls-11,.cls-12,.cls-6{fill:none;}.cls-7{fill:#e60012;stroke-width:3px;}.cls-9{fill:#6bc8f2;}.cls-11,.cls-9{stroke-linecap:round;}.cls-10{fill:#b28247;}.cls-10,.cls-11{stroke-width:0.75px;}.cls-12{stroke:#e60012;stroke-width:0.2px;}</style></defs><title>アセット 1</title><g id="レイヤー_2" data-name="レイヤー 2"><g id="ホワイト"><path class="cls-1" d="M146.79,75.93A70.87,70.87,0,1,1,75.92,5.06,70.87,70.87,0,0,1,146.79,75.93Z"/></g><g id="レイヤー_1-2" data-name="レイヤー 1"><path class="cls-2" d="M146.79,75.93A70.87,70.87,0,1,1,75.93,5.06,70.85,70.85,0,0,1,146.79,75.93Z"/><path class="cls-3" d="M141.83,75.93A65.91,65.91,0,1,1,75.93,10,65.9,65.9,0,0,1,141.83,75.93Z"/><path class="cls-4" d="M127.31,78.29A51.38,51.38,0,1,1,75.93,26.91,51.38,51.38,0,0,1,127.31,78.29Z"/><path class="cls-5" d="M21.63,62.33a11.89,11.89,0,0,0,1.82.38l-.58,2.08a11.22,11.22,0,0,0-1.76-.6L13.6,62.1,13.08,64a14,14,0,0,0-.42,1.91l-1.85-.51a13.87,13.87,0,0,0,.62-1.84l1.51-5.45a14.79,14.79,0,0,0,.46-2l1.85.51a14.15,14.15,0,0,0-.66,2l-.48,1.73Z"/><path class="cls-5" d="M28.28,51.2a9.49,9.49,0,0,0-1.52-.3l-1.65-.18-2,4.1L24.23,56a7.25,7.25,0,0,0,1.15,1l-1,2.1a15,15,0,0,0-1.17-1.43l-6-6.47a8.67,8.67,0,0,0-1.09-1.05L17.18,48a8.94,8.94,0,0,0,1.51.21l8.79.81a13,13,0,0,0,1.84.09ZM18.94,50l-.83-.13.6.6,3.13,3.21,1.57-3.18Z"/><path class="cls-5" d="M33.12,39.45a12,12,0,0,0,1.53,1.06A8.88,8.88,0,0,1,34,42.92,8.69,8.69,0,0,1,33,44.75,5,5,0,0,1,29.19,47a6.72,6.72,0,0,1-4.26-1.59,5.69,5.69,0,0,1-2.57-4.87,5.32,5.32,0,0,1,1.27-3,4.72,4.72,0,0,1,3-1.85,4,4,0,0,1,2,.21l-.78,1.87a2.33,2.33,0,0,0-3,1A3,3,0,0,0,24.19,41a4.46,4.46,0,0,0,1.93,2.82,5.08,5.08,0,0,0,3.24,1.28,3,3,0,0,0,2.3-1.37,4.26,4.26,0,0,0,1-2.31l-1.84-1.43-.47.61a7.35,7.35,0,0,0-.82,1.21L28,40.63a10.39,10.39,0,0,0,1.11-1.3l.46-.59c.4-.52.64-.86,1-1.37a12.87,12.87,0,0,0,1.34,1.16Z"/><path class="cls-5" d="M36.38,26.78a6.18,6.18,0,0,1,4.12,2.33c2.36,2.74,2.3,5.88-.16,8s-5.56,1.71-7.92-1a6.09,6.09,0,0,1-1.68-4.44,4.94,4.94,0,0,1,1.86-3.49A5,5,0,0,1,36.38,26.78ZM39,30.42a4.61,4.61,0,0,0-3-1.79,3.09,3.09,0,0,0-2.24.78c-1.56,1.34-1.48,3.42.21,5.38A4.73,4.73,0,0,0,37,36.59a3.08,3.08,0,0,0,2.24-.79C40.8,34.47,40.7,32.41,39,30.42Z"/><path class="cls-5" d="M56.48,27.11a15.12,15.12,0,0,0-1.88.78l-3.81,1.82c-.73.35-1.17.58-1.62.82a11.25,11.25,0,0,0-.71-1.75l-3.19-6.69a13.71,13.71,0,0,0-1-1.86l2-.93a13.22,13.22,0,0,0,.8,1.95l3.25,6.81,3.61-1.73a14.14,14.14,0,0,0,1.79-1Z"/><path class="cls-5" d="M64.75,24.68A10.23,10.23,0,0,0,64,23.34L63,22l-4.41,1.2-.15,1.65a8.23,8.23,0,0,0,0,1.56L56.17,27a15.75,15.75,0,0,0,.29-1.83l.88-8.78a8.69,8.69,0,0,0,.06-1.51l2.4-.65a9.16,9.16,0,0,0,.85,1.26l5.22,7.13A15.13,15.13,0,0,0,67,24.07ZM59.5,16.85l-.45-.71L59,17l-.32,4.47,3.42-.93Z"/><path class="cls-5" d="M69.53,24c-.83.05-1.24.1-1.83.17a10.34,10.34,0,0,0,0-1.94l-.54-7.74a11.59,11.59,0,0,0-.24-1.74c.61,0,.83,0,1.8-.1l3.37-.23c2.2-.16,3.51.76,3.64,2.54A2.53,2.53,0,0,1,75.07,17a2.42,2.42,0,0,1-1.08.68,2.72,2.72,0,0,1,1.48.55,2.88,2.88,0,0,1,1,2.12c.13,2-1.11,3.22-3.48,3.38ZM72.21,17a1.53,1.53,0,0,0,1.62-1.68,1.48,1.48,0,0,0-.45-1A2,2,0,0,0,72,14l-3,.2.21,3ZM69.6,22.33l3.06-.21c1.27-.09,1.94-.77,1.86-1.92A1.56,1.56,0,0,0,74,19a2.31,2.31,0,0,0-1.59-.37l-3,.21Z"/><path class="cls-5" d="M87.83,14.45a6.19,6.19,0,0,1,1,4.62c-.45,3.59-2.83,5.65-6,5.25s-5-3-4.54-6.58a6.14,6.14,0,0,1,2.17-4.22,5.56,5.56,0,0,1,7.39.93Zm-1,4.37a4.61,4.61,0,0,0-.71-3.44,3.08,3.08,0,0,0-2.07-1.14c-2-.26-3.54,1.2-3.86,3.76A4.69,4.69,0,0,0,81,21.49a3.08,3.08,0,0,0,2.09,1.14C85.08,22.89,86.55,21.43,86.88,18.82Z"/><path class="cls-5" d="M96.14,27.42a12.31,12.31,0,0,0,0-2.4c-.1-2.12-.4-2.78-1.45-3.14l-2-.68L91.77,24a10,10,0,0,0-.49,1.81l-2-.68A12.59,12.59,0,0,0,90,23.36l2.47-7.29a13.92,13.92,0,0,0,.49-1.8c.56.22,1,.38,1.72.63L97.9,16c2,.7,2.88,2.13,2.28,3.92A2.73,2.73,0,0,1,97,22c.76.56.89,1,1.16,4.65,0,.28.11,1.13.18,1.56ZM96,20.58a1.9,1.9,0,0,0,1.45,0,1.73,1.73,0,0,0,.84-1c.33-1-.06-1.67-1.17-2L94.3,16.5l-1.07,3.16Z"/><path class="cls-5" d="M106.12,32.6a9.59,9.59,0,0,0,.41-1.5l.28-1.63-4-2.29-1.27,1.06a6.46,6.46,0,0,0-1.12,1.08l-2-1.17c.37-.23.94-.64,1.5-1.08l6.85-5.57a8.36,8.36,0,0,0,1.12-1l2.15,1.25a9.15,9.15,0,0,0-.3,1.49L108.37,32a16.66,16.66,0,0,0-.22,1.83ZM108,23.36c0-.17.08-.34.18-.82l-.63.55L104.12,26l3.07,1.78Z"/><path class="cls-5" d="M113.64,36.17a12.19,12.19,0,0,0-1.13,1.48l-1.63-1.41a11.19,11.19,0,0,0,1.3-1.34l5.1-5.9-1.46-1.26a15.19,15.19,0,0,0-1.55-1.21l1.25-1.45a14.67,14.67,0,0,0,1.41,1.35l4.28,3.7a15,15,0,0,0,1.66,1.29l-1.25,1.45a17,17,0,0,0-1.53-1.44l-1.35-1.17Z"/><path class="cls-5" d="M129.25,41.15a6.18,6.18,0,0,1-2.51,4c-2.84,2.24-6,2-8-.5s-1.47-5.63,1.38-7.88a6.12,6.12,0,0,1,4.51-1.48,4.94,4.94,0,0,1,3.4,2A5,5,0,0,1,129.25,41.15ZM125.5,43.6a4.62,4.62,0,0,0,1.91-3,3.07,3.07,0,0,0-.67-2.27c-1.28-1.61-3.36-1.62-5.39,0a4.69,4.69,0,0,0-1.93,3,3.08,3.08,0,0,0,.68,2.28C121.37,45.24,123.44,45.23,125.5,43.6Z"/><path class="cls-5" d="M126.06,56.19a11.82,11.82,0,0,0,1.7-1.7c1.42-1.57,1.66-2.26,1.17-3.24l-1-1.9-2.61,1.31a10.87,10.87,0,0,0-1.61,1l-1-1.9A12.59,12.59,0,0,0,124.5,49l6.87-3.47a12.19,12.19,0,0,0,1.61-.94c.24.55.43.95.78,1.65l1.55,3.06c1,1.94.57,3.54-1.11,4.39A2.9,2.9,0,0,1,132,54a3,3,0,0,1-1.46-1c.15.93-.08,1.35-2.43,4.12-.18.22-.71.89-1,1.24Zm4.66-5a1.93,1.93,0,0,0,1.07,1,1.74,1.74,0,0,0,1.33-.16c.91-.46,1.12-1.23.59-2.27l-1.32-2.62-3,1.5Z"/><path class="cls-5" d="M128.31,62.38a13.69,13.69,0,0,0,1.8-.4l2.73-.77L137,56.6c.27-.3.63-.74,1.14-1.36l.68,2.41a5.4,5.4,0,0,0-1.16,1l-2.81,3,3.94,1.07a6.85,6.85,0,0,0,1.54.26l.68,2.39c-.33-.12-1.23-.42-1.68-.55l-6-1.74-2.71.77a11.23,11.23,0,0,0-1.74.61Z"/><circle class="cls-5" cx="75.93" cy="78.39" r="47.58" transform="translate(-6.48 149.95) rotate(-86.88)"/><line class="cls-6" x1="42.64" y1="81.75" x2="39.66" y2="94.26"/><path class="cls-7" d="M61.83,87.5c0,4.67,5.68,16.27,12.38,18.1,5.56,1.52,9.63,1.12,13.31-2.24C92.34,99,91.17,87.54,91.2,82.64,91.21,80.89,61.83,87.5,61.83,87.5Z"/><line class="cls-6" x1="45.63" y1="81.75" x2="42.64" y2="94.26"/><line class="cls-6" x1="107.61" y1="75.5" x2="104.63" y2="88.01"/><line class="cls-6" x1="110.2" y1="75.88" x2="107.21" y2="88.4"/><path class="cls-8" d="M88.69,56.51l2.47,13.07c.6,3.15,5.42,1.82,4.83-1.33L93.51,55.18c-.6-3.16-5.42-1.82-4.82,1.33Z"/><path class="cls-8" d="M52.45,61.8l2.48,13.08c.6,3.16,5.42,1.82,4.82-1.33L57.27,60.48c-.6-3.16-5.42-1.82-4.82,1.32Z"/></g><g id="fonts"><path class="cls-9" d="M106.15,126.54l17.13-12c.92-.65.1-5.17.1-5.17L103,82.68a2.13,2.13,0,0,0-2.9-.43L82,95c-1.53.94-1.11,5-.43,5.84l20.14,26.37C102.34,128.12,105.23,127.19,106.15,126.54Z"/><path class="cls-10" d="M125.9,136.91l.56-.38a1.94,1.94,0,0,0,.44-2.78l-12.11-15.86-3.9,2.74L123,136.49A2.12,2.12,0,0,0,125.9,136.91Z"/><line class="cls-11" x1="101.49" y1="122.15" x2="81.48" y2="95.96"/><g id="outlined"><path class="cls-5" d="M55.52,136.15a1.92,1.92,0,0,0,0,1.27,2.44,2.44,0,0,0,1.69,1.33c1.33.38,2.31,0,2.6-1a1.4,1.4,0,0,0-.3-1.42,7.94,7.94,0,0,0-1.93-1.21,5,5,0,0,1-1.6-1.2,2.38,2.38,0,0,1-.47-2.29c.48-1.68,2.11-2.39,4.17-1.8a3.6,3.6,0,0,1,2.59,2.06,3.29,3.29,0,0,1,.17,1.56L61,133.17a1.75,1.75,0,0,0-.13-1A2.14,2.14,0,0,0,59.35,131c-1.16-.33-2.13.05-2.39.95a1.34,1.34,0,0,0,.59,1.51,8.88,8.88,0,0,0,1.63.95A5.12,5.12,0,0,1,61,135.76a2.45,2.45,0,0,1,.36,2.28c-.54,1.9-2.12,2.59-4.39,1.94a4,4,0,0,1-2.79-2.06,3.53,3.53,0,0,1-.15-2Z"/><path class="cls-5" d="M69.43,142.14a8.58,8.58,0,0,0-.16-1.16l-.71-3.47c0-.1,0-.24-.13-.87-.11.29-.29.71-.35.84l-1.48,3.19a8.3,8.3,0,0,0-.43,1.09l-1.25-.15a9.43,9.43,0,0,0-.18-1.17l-.86-4.68c-.1-.58-.22-1.2-.34-1.64l1.6.19a7.89,7.89,0,0,0,.12,1.52l.46,2.89c0,.17.08.57.12,1,0-.16.34-.84.4-1l1.41-3a9,9,0,0,0,.42-1.09l1.16.14a10.75,10.75,0,0,0,.16,1.15l.68,3.38c0,.11.08.43.11.63a2.17,2.17,0,0,0,0,.3c.2-.58.31-.88.32-.9l1.15-2.77a7.73,7.73,0,0,0,.45-1.45l1.6.18c-.19.36-.25.48-.71,1.52l-1.93,4.36c-.24.56-.33.79-.43,1.09Z"/><path class="cls-5" d="M76.12,139.13a2.67,2.67,0,0,0,.55,1.59,2.05,2.05,0,0,0,1.71.72,2,2,0,0,0,1.59-.73,2.06,2.06,0,0,0,.36-.73l1.29.4a3.3,3.3,0,0,1-3.21,2.21c-2.16.08-3.59-1.37-3.67-3.72s1.24-3.9,3.32-4a3.26,3.26,0,0,1,3.45,2.92c0,.17,0,.17.13,1.13Zm4.08-1.24a2.1,2.1,0,0,0-.67-1.36,1.87,1.87,0,0,0-1.45-.5,1.89,1.89,0,0,0-1.67,1.05,2.36,2.36,0,0,0-.29.95Z"/><path class="cls-5" d="M84.71,138.55a2.62,2.62,0,0,0,.75,1.5,2.23,2.23,0,0,0,3.27-.43,1.92,1.92,0,0,0,.26-.77l1.33.23a3.21,3.21,0,0,1-.55,1.25,3.48,3.48,0,0,1-2.34,1.36c-2.13.35-3.74-.9-4.12-3.22s.72-4,2.77-4.37a3.25,3.25,0,0,1,3.8,2.46c.05.16.05.16.27,1.1Zm3.88-1.76a2.11,2.11,0,0,0-.84-1.27,2,2,0,0,0-3,1,2.27,2.27,0,0,0-.16,1Z"/><path class="cls-5" d="M92.78,130.77a11.81,11.81,0,0,0,.33,1.5l.12.43.56-.16a7.32,7.32,0,0,0,1.24-.43l.36,1.27a6.11,6.11,0,0,0-1.26.27l-.58.16,1.13,4c.18.63.42.78,1,.61a1.78,1.78,0,0,0,.89-.56l.59,1.11a3.73,3.73,0,0,1-1.42.71,2.16,2.16,0,0,1-1.5,0,1.75,1.75,0,0,1-.81-1.22l-1.21-4.31-.48.14a8.2,8.2,0,0,0-1.09.38l-.35-1.26a5,5,0,0,0,1.13-.24l.48-.13-.12-.42a13.74,13.74,0,0,0-.51-1.46Z"/><path class="cls-5" d="M99.24,136.05a1.37,1.37,0,0,0,.73.64,1.89,1.89,0,0,0,1.42-.1c.93-.37,1.38-1,1.14-1.62a.85.85,0,0,0-.61-.54,3.64,3.64,0,0,0-1.48.11,5.56,5.56,0,0,1-2,.13A1.73,1.73,0,0,1,97,133.56a1.9,1.9,0,0,1,0-1.48,3.18,3.18,0,0,1,1.82-1.52,3.22,3.22,0,0,1,2.33-.17,2.27,2.27,0,0,1,1.11.9L101,132a1,1,0,0,0-.49-.49,1.59,1.59,0,0,0-1.33,0c-.79.31-1.19.92-1,1.47a.77.77,0,0,0,.63.47,4.75,4.75,0,0,0,1.39-.13,4.7,4.7,0,0,1,2.42-.05,1.82,1.82,0,0,1,1.12,1.13,2,2,0,0,1,0,1.52,3.58,3.58,0,0,1-2,1.68,3.25,3.25,0,0,1-3,0,2.75,2.75,0,0,1-.84-.86Z"/></g></g><g id="カットライン"><path class="cls-12" d="M151.75,75.93A75.83,75.83,0,1,1,75.93.1,75.83,75.83,0,0,1,151.75,75.93Z"/></g></g></svg>